<svg width="20" height="20" viewBox="0 0 20 20" fill="none" xmlns="http://www.w3.org/2000/svg">
<path d="M11.4887 10.001L19.6917 1.79795C20.1028 1.38686 20.1028 0.720373 19.6917 0.309319C19.2806 -0.101774 18.6141 -0.101774 18.203 0.309319L9.99998 8.51235L1.79695 0.309319C1.38586 -0.101774 0.719374 -0.101774 0.30832 0.309319C-0.102734 0.720412 -0.102773 1.38689 0.30832 1.79795L8.51135 10.001L0.30832 18.204C-0.102773 18.6151 -0.102773 19.2816 0.30832 19.6926C0.719413 20.1037 1.3859 20.1037 1.79695 19.6926L9.99998 11.4896L18.203 19.6926C18.6141 20.1037 19.2806 20.1037 19.6916 19.6926C20.1027 19.2815 20.1027 18.6151 19.6916 18.204L11.4887 10.001Z" fill="#7190FF"/>
</svg>
